<svg width="127" height="127" viewBox="0 0 127 127" xmlns="http://www.w3.org/2000/svg">
    <g fill="none" fill-rule="evenodd">
        <circle fill="#FFF" cx="63.5" cy="63.5" r="63.5"/>
        <g stroke="#7AB51D" stroke-width="2">
            <path d="M84 46.42C84 57.145 76.81 73 64.5 73 53.73 73 45 57.145 45 46.42 45 35.695 53.73 27 64.5 27S84 35.695 84 46.42z"/>
            <path d="M45 42.639S62.272 50.309 71.125 38c0 0 4.318 6.795 11.875 4.31M94.887 96.843 90.51 79.39c-1.184-3.453-3.541-6.281-6.55-8.12-.827-.506-1.92-.284-2.446.52-3.102 4.754-9.75 8.04-17.45 8.04-7.669 0-14.293-3.259-17.411-7.98-.53-.802-1.627-1.023-2.45-.51-2.87 1.788-5.138 4.485-6.336 7.773L33.128 96.8c-.532 1.576.666 3.2 2.361 3.2h57.022c1.675 0 2.872-1.59 2.376-3.157z"/>
        </g>
    </g>
</svg>
